<?xml version="1.0" standalone="no"?>
<!DOCTYPE svg PUBLIC "-//W3C//DTD SVG 20010904//EN"
 "http://www.w3.org/TR/2001/REC-SVG-20010904/DTD/svg10.dtd">
<svg version="1.0" xmlns="http://www.w3.org/2000/svg"
 width="640.000000pt" height="640.000000pt" viewBox="0 0 640.000000 640.000000"
 preserveAspectRatio="xMidYMid meet">
<metadata>
Created by potrace 1.16, written by Peter Selinger 2001-2019
</metadata>
<g transform="translate(0.000000,640.000000) scale(0.100000,-0.100000)"
fill="#000000" stroke="none">
<path d="M0 3200 l0 -3200 3200 0 3200 0 0 3200 0 3200 -3200 0 -3200 0 0
-3200z m2173 3154 c9 -9 -11 -44 -26 -44 -6 0 -42 -15 -79 -32 -58 -28 -68
-37 -68 -59 0 -41 24 -56 63 -40 45 19 84 25 90 14 10 -16 -7 -31 -65 -56 -58
-26 -63 -33 -52 -74 8 -29 15 -29 80 3 58 28 89 29 89 0 0 -12 -13 -22 -39
-31 -21 -8 -56 -30 -77 -51 -30 -29 -43 -35 -62 -30 -28 7 -38 31 -58 136 -7
36 -21 84 -31 108 -21 52 -23 72 -5 72 7 0 54 20 103 44 85 43 123 54 137 40z
m-866 -124 c108 -293 140 -368 199 -451 38 -54 42 -74 18 -83 -49 -19 -69 1
-134 139 -29 61 -63 132 -76 158 -12 26 -26 61 -29 77 -4 17 -11 30 -16 30
-11 0 -16 -23 -28 -155 -12 -131 -16 -145 -45 -145 -32 0 -60 23 -96 82 -61
98 -83 128 -93 128 -5 0 -6 -12 -3 -27 4 -16 12 -80 17 -143 17 -185 18 -175
-12 -178 -14 -2 -31 3 -37 11 -7 8 -19 86 -27 173 -9 87 -23 194 -31 236 -8
43 -12 82 -9 88 13 21 67 11 92 -17 80 -91 112 -132 127 -160 34 -68 43 -43
56 166 6 84 13 158 16 163 3 5 22 8 41 6 35 -3 36 -4 70 -98z m1347 -30 c-7
-58 -12 -121 -12 -140 0 -32 1 -30 21 25 31 85 43 103 58 88 9 -9 9 -27 2 -75
-6 -35 -7 -67 -3 -72 9 -9 60 90 60 116 0 9 8 25 18 36 21 25 67 20 83 -9 9
-18 12 -17 44 17 47 50 57 39 49 -53 -6 -63 -5 -75 7 -71 19 6 55 74 64 120 8
45 36 72 65 63 31 -10 52 -48 44 -79 -9 -39 -38 -30 -44 14 l-5 35 -12 -30
c-34 -87 -21 -160 25 -136 26 14 72 90 72 120 0 12 7 35 16 52 12 24 19 29 37
23 12 -3 28 -11 35 -16 27 -22 3 -113 -30 -113 -9 0 -20 -3 -23 -7 -12 -12 6
-48 24 -48 19 0 54 34 64 63 9 26 30 21 22 -5 -9 -31 -70 -88 -94 -88 -20 0
-46 20 -53 41 -2 7 -17 -2 -35 -20 -17 -17 -41 -31 -52 -31 -26 0 -61 34 -61
58 0 11 -7 6 -20 -15 -34 -57 -74 -40 -86 35 -6 40 -8 42 -24 27 -10 -9 -21
-30 -24 -47 -10 -51 -33 -78 -66 -78 -17 0 -33 7 -39 18 -9 16 -11 15 -31 -6
-28 -30 -54 -25 -58 11 -3 28 -22 39 -22 12 0 -44 -57 -113 -61 -72 -7 77 17
325 33 344 22 26 25 -3 12 -107z m1056 101 c0 -5 -18 -13 -41 -19 -46 -12
-109 -51 -109 -69 0 -6 26 -19 58 -28 65 -19 82 -30 82 -54 0 -38 -89 -91
-150 -91 -45 0 -37 33 10 41 88 14 105 58 33 84 -84 30 -93 34 -93 48 0 36
108 96 173 97 20 0 37 -4 37 -9z m1957 -49 c77 -33 130 -68 120 -79 -3 -2 -50
10 -106 27 -55 17 -105 29 -111 25 -12 -7 -75 -121 -84 -151 -6 -19 -2 -23 30
-28 51 -10 84 -27 84 -44 0 -12 -13 -13 -74 -7 l-74 7 -12 -59 c-20 -102 -26
-118 -41 -118 -26 0 -17 147 15 240 29 82 86 194 113 221 18 17 27 15 140 -34z
m-4163 11 c15 -30 30 -87 70 -272 14 -62 30 -119 36 -126 26 -31 -28 -63 -58
-33 -6 6 -21 54 -32 107 -45 206 -53 237 -73 277 -23 49 -18 74 17 74 18 0 30
-9 40 -27z m1032 13 c27 -21 5 -44 -28 -29 -48 21 -86 -20 -113 -123 -17 -67
-19 -141 -5 -178 18 -48 71 -30 143 49 37 41 48 35 23 -13 -27 -51 -101 -102
-149 -102 -39 0 -68 30 -74 76 -12 93 52 305 99 324 35 13 82 12 104 -4z
m-847 -9 c6 -8 18 -81 27 -163 8 -82 19 -153 24 -158 6 -6 29 3 59 21 60 38
85 46 111 38 35 -11 22 -33 -41 -65 -34 -17 -77 -42 -95 -56 -19 -15 -43 -24
-56 -22 -27 4 -42 50 -63 193 -8 55 -20 124 -27 153 -10 45 -9 55 3 63 20 13
45 11 58 -4z m2931 -12 c12 -15 -12 -45 -36 -45 -27 0 -94 -40 -130 -78 -39
-41 -118 -158 -128 -189 -10 -31 13 -73 43 -79 14 -3 35 -9 47 -14 11 -4 40
-6 65 -3 55 6 91 -15 70 -41 -15 -18 -118 -22 -167 -7 -16 5 -40 12 -54 15
-30 6 -70 69 -70 109 0 56 123 248 194 302 65 49 139 63 166 30z m326 -34
c163 -56 215 -85 199 -111 -11 -17 -43 -11 -105 20 -32 16 -80 34 -107 40 -26
6 -56 13 -65 16 -21 6 -47 -30 -58 -82 -10 -45 10 -69 68 -79 42 -7 82 -36 82
-60 0 -15 -38 -55 -51 -55 -4 0 -10 4 -14 9 -10 17 -105 43 -131 37 -18 -5
-31 -20 -45 -52 -38 -89 -37 -92 18 -99 100 -13 149 -56 125 -110 -13 -29 -39
-32 -58 -7 -10 14 -30 17 -110 19 -54 2 -101 6 -106 11 -20 20 -7 68 59 217
70 159 95 228 108 295 4 19 9 38 11 42 5 8 43 -3 180 -51z m-938 -14 c-6 -78
-42 -143 -97 -179 -99 -63 -181 -1 -151 113 7 24 12 58 12 76 0 30 3 33 29 33
34 0 36 -12 14 -97 -20 -77 -13 -113 25 -113 20 0 38 11 64 40 36 41 40 51 51
133 6 42 9 47 32 47 25 0 25 -2 21 -53z m251 27 c12 -11 -13 -32 -49 -43 -43
-13 -126 -86 -164 -143 -37 -57 4 -88 115 -88 62 0 70 -2 67 -17 -3 -16 -15
-18 -92 -16 -96 2 -122 13 -146 57 -13 25 -12 31 10 74 63 120 209 220 259
176z m-3513 -156 c4 -6 -9 -26 -33 -47 -42 -37 -63 -82 -63 -132 0 -35 21 -47
102 -60 108 -17 142 -47 140 -125 0 -41 -30 -112 -60 -146 -8 -10 -26 -18 -39
-18 -20 0 -23 5 -23 35 0 23 6 37 19 44 39 21 50 101 20 138 -6 6 -47 19 -91
29 -107 23 -130 43 -130 111 0 61 23 113 68 153 35 31 77 39 90 18z m5008 -93
c15 -14 31 -25 37 -25 19 0 8 -23 -36 -74 -64 -76 -61 -97 8 -51 20 14 41 24
46 21 4 -3 18 8 30 24 13 19 31 30 46 30 25 0 44 -18 29 -29 -5 -3 -28 -28
-52 -55 -63 -73 -54 -95 23 -56 22 11 43 20 47 20 7 0 111 107 115 118 1 4
-15 15 -37 25 -22 10 -40 25 -40 33 0 18 23 13 82 -17 31 -16 38 -17 48 -4 7
8 20 15 30 15 23 0 45 -26 30 -35 -18 -11 -11 -22 40 -53 48 -30 51 -31 86
-16 38 16 68 12 62 -7 -2 -6 -45 -32 -95 -58 -91 -48 -198 -120 -190 -128 3
-2 30 8 61 22 66 30 129 31 134 3 2 -12 -5 -19 -22 -24 -34 -8 -120 -70 -108
-78 5 -3 32 1 58 9 27 8 50 15 52 15 1 0 2 -6 2 -14 0 -13 -28 -26 -89 -40
-51 -11 -84 43 -46 74 27 22 9 22 -34 1 -22 -12 -49 -21 -60 -21 -21 0 -36 26
-21 35 21 13 8 20 -30 17 -34 -4 -41 -1 -51 21 -8 18 -8 30 0 45 17 33 13 35
-23 13 -37 -23 -81 -27 -92 -9 -4 6 -6 29 -6 50 l2 39 -35 -26 c-42 -33 -69
-30 -73 8 l-3 27 -39 -22 c-32 -19 -40 -20 -54 -9 -42 35 9 167 77 196 45 20
60 18 91 -10z m-583 -22 c26 -16 59 -66 59 -91 0 -23 -31 -19 -59 9 -33 31
-51 35 -98 19 -40 -14 -50 -39 -57 -139 -4 -59 -13 -99 -28 -130 -24 -48 -77
-91 -112 -91 -43 0 -94 20 -99 39 -9 36 33 54 71 30 27 -17 73 1 98 39 16 23
23 54 29 119 3 48 11 104 16 124 8 33 39 70 70 82 29 11 82 6 110 -10z m-4809
-82 c64 -28 133 -94 162 -156 33 -68 34 -114 3 -143 -24 -22 -97 -52 -128 -52
-26 0 -24 -7 12 -38 36 -30 59 -77 59 -123 0 -70 -111 -130 -243 -131 -85 0
-142 21 -160 59 -17 37 14 157 107 417 25 70 46 138 46 150 0 51 50 57 142 17z
m5035 -141 c64 -47 100 -144 77 -204 -14 -37 -54 -4 -54 45 0 12 -17 39 -39
60 -31 31 -46 39 -75 39 l-36 0 -54 -115 c-49 -103 -59 -117 -102 -145 -26
-16 -59 -30 -73 -30 -32 0 -101 31 -119 52 -18 22 1 66 32 74 31 7 46 -1 46
-26 0 -24 36 -35 85 -26 41 8 66 45 115 172 18 45 43 93 56 108 35 37 87 36
141 -4z m936 -232 c9 -28 -16 -58 -57 -69 -23 -6 -57 -15 -78 -20 -20 -5 -61
-21 -92 -35 l-56 -25 0 -50 c0 -62 11 -67 89 -39 79 28 120 16 93 -28 -5 -7
-43 -21 -85 -31 -42 -10 -83 -24 -92 -31 -17 -14 -21 -85 -5 -95 5 -3 39 3 76
15 74 22 106 25 135 10 33 -18 8 -46 -47 -53 -25 -2 -80 -22 -121 -43 -98 -49
-106 -45 -114 67 -4 46 -8 138 -10 203 l-4 119 60 17 c33 9 85 27 115 40 147
60 185 70 193 48z m-5257 -48 c15 -23 35 -40 45 -40 10 0 26 -11 35 -25 16
-24 15 -28 -34 -113 -57 -100 -89 -167 -143 -306 -43 -110 -65 -140 -117 -157
-65 -21 -174 9 -187 52 -9 29 12 50 28 28 28 -37 105 -52 149 -28 24 13 117
212 118 252 0 4 -17 -5 -37 -22 -21 -16 -48 -32 -61 -36 -27 -8 -72 18 -72 41
0 12 -7 14 -34 9 -28 -6 -36 -3 -50 16 -9 13 -16 33 -16 45 0 21 -1 21 -31 -7
-17 -16 -40 -29 -50 -29 -22 0 -59 34 -59 53 0 22 31 121 41 132 5 5 9 15 9
22 0 25 -20 13 -39 -25 -46 -91 -82 -79 -40 13 20 41 28 72 24 85 -8 26 11 50
40 50 25 0 38 -21 29 -45 -4 -9 0 -15 7 -16 8 -1 25 -2 39 -2 31 -2 37 -30 12
-57 -22 -24 -58 -94 -67 -132 -8 -32 16 -49 37 -26 29 31 76 95 91 124 17 32
41 49 58 38 15 -9 10 -29 -27 -109 -24 -49 -33 -80 -27 -86 19 -19 40 3 52 54
27 118 157 287 220 287 25 0 36 -8 57 -40z m4432 -26 c13 -8 26 -22 29 -31 10
-26 -16 -84 -74 -161 -29 -40 -56 -79 -59 -86 -3 -8 10 -23 33 -37 47 -28 233
-208 233 -225 0 -15 -32 -27 -51 -18 -8 3 -34 29 -59 58 -59 67 -149 146 -168
146 -12 0 -14 -11 -9 -63 3 -34 9 -70 12 -80 9 -23 -22 -35 -41 -15 -16 15
-33 165 -34 285 0 40 -5 104 -12 142 -7 39 -10 73 -7 75 3 3 30 12 60 20 59
17 111 13 147 -10z m-4270 -106 c-76 -122 -128 -212 -128 -223 0 -5 25 19 56
53 88 98 114 77 44 -35 -23 -35 -38 -68 -35 -73 17 -27 155 164 155 212 0 8
-14 19 -31 25 -46 18 -32 39 21 34 36 -2 46 1 60 20 12 15 23 20 35 15 14 -5
16 -9 7 -18 -19 -19 -14 -35 11 -41 32 -9 61 -32 54 -44 -5 -7 -21 -7 -52 0
-37 8 -48 8 -60 -4 -19 -20 -105 -194 -105 -213 0 -26 17 -18 51 24 31 38 49
50 49 31 0 -4 -19 -29 -41 -55 -48 -54 -82 -60 -87 -13 -4 32 -5 33 -40 7 -42
-32 -65 -18 -57 33 l7 40 -40 -42 c-40 -42 -62 -47 -62 -13 0 21 50 119 126
248 65 112 103 159 117 145 6 -6 -13 -45 -55 -113z m4674 77 c-5 -25 -23 -36
-87 -53 -27 -7 -69 -22 -92 -33 -37 -18 -43 -25 -43 -52 0 -60 10 -64 102 -41
38 9 58 0 51 -25 -4 -14 -19 -23 -56 -31 -88 -19 -114 -49 -87 -101 10 -18 13
-18 39 -4 46 23 103 29 126 12 28 -21 6 -43 -48 -49 -23 -3 -64 -19 -92 -37
-72 -45 -78 -36 -86 136 -4 76 -10 154 -14 174 -7 36 -6 36 37 47 23 6 79 27
123 47 89 39 132 43 127 10z m-646 -116 c10 -17 -11 -31 -68 -43 l-53 -12 -3
-48 -3 -48 38 7 c63 13 87 12 91 -7 2 -12 -5 -19 -25 -24 -102 -22 -113 -36
-95 -121 11 -50 2 -77 -18 -57 -13 13 -28 125 -33 250 l-4 91 66 10 c94 14 99
14 107 2z m-4883 -215 c-3 -8 -18 -21 -34 -30 -36 -18 -89 -89 -89 -118 0 -12
7 -51 17 -87 16 -63 16 -69 -1 -114 -29 -76 -106 -149 -106 -101 0 24 12 46
25 46 19 0 65 73 65 103 0 15 -7 44 -15 64 -8 19 -15 50 -15 67 0 73 112 224
145 196 8 -6 11 -18 8 -26z m3082 -3 c30 -13 84 -55 136 -104 48 -45 101 -92
118 -105 24 -18 36 -40 52 -95 11 -40 33 -115 50 -167 52 -171 66 -283 61
-495 -4 -158 -5 -157 23 -105 28 53 30 61 10 54 -12 -5 -15 3 -15 37 0 51 9
89 20 89 20 0 33 -64 27 -133 -6 -58 -4 -68 5 -52 7 11 17 49 24 85 9 50 12
57 13 29 0 -20 -6 -58 -14 -85 -9 -27 -22 -85 -30 -128 -8 -43 -16 -79 -17
-80 -2 -1 -14 -7 -27 -14 -24 -14 -24 -14 -18 25 11 66 -10 73 -23 7 -65 -324
-180 -488 -428 -607 -87 -42 -88 -42 -202 -42 -105 0 -120 2 -173 28 -197 93
-330 236 -391 417 -40 120 -67 346 -69 579 -2 182 3 217 59 411 28 98 32 114
44 175 6 33 13 70 16 83 4 20 50 56 174 135 15 10 50 24 76 32 27 7 74 23 104
35 49 18 71 20 200 17 123 -3 153 -7 195 -26z m-2817 -47 c7 -2 12 -14 10 -26
-3 -21 -10 -23 -72 -28 l-70 -5 -17 -55 c-9 -30 -44 -117 -78 -192 -33 -75
-61 -141 -61 -147 0 -6 -7 -11 -16 -11 -22 0 -13 56 20 124 35 72 93 207 99
231 3 11 8 30 12 43 6 19 3 22 -25 22 -31 0 -47 18 -37 43 4 11 29 13 114 10
59 -3 114 -6 121 -9z m5262 -189 l22 -65 81 -25 c45 -13 119 -29 163 -34 45
-4 87 -12 93 -15 17 -11 13 -44 -6 -48 -43 -8 -220 21 -286 47 -17 7 -18 4
-12 -49 7 -55 -1 -71 -22 -43 -13 16 -60 188 -69 250 -9 69 10 59 36 -18z
m-5291 -80 c32 -16 56 -64 47 -92 -6 -18 -43 -48 -105 -84 -28 -17 -32 -24
-27 -47 3 -15 9 -69 12 -121 6 -78 5 -93 -7 -89 -10 3 -16 30 -20 96 -3 51 -8
95 -12 98 -11 12 -27 -7 -37 -46 -11 -42 -30 -54 -30 -20 0 11 26 75 58 142
33 68 62 135 66 151 7 31 16 33 55 12z m5104 -59 c84 -50 142 -153 103 -185
-21 -18 -42 -3 -55 39 -19 63 -140 150 -210 150 -52 0 -65 -33 -56 -141 6 -84
5 -91 -11 -87 -24 4 -32 36 -33 131 -1 88 14 121 62 142 39 16 127 -5 200 -49z
m-4947 -99 c11 -62 5 -97 -24 -147 -65 -113 -162 -138 -162 -40 0 55 141 253
168 236 6 -3 14 -25 18 -49z m188 37 c8 -20 -13 -100 -59 -228 -39 -109 -42
-124 -20 -106 17 14 123 203 158 283 19 42 31 57 46 57 33 0 34 -34 3 -92 -99
-181 -227 -388 -240 -388 -38 0 -42 85 -8 201 23 79 25 113 5 78 -4 -9 -28
-43 -52 -75 -24 -33 -49 -69 -56 -81 -14 -27 -36 -30 -45 -7 -8 20 -2 29 88
149 41 55 92 128 112 163 37 62 57 76 68 46z m5265 -44 c54 -27 71 -47 71 -80
0 -45 -60 -65 -124 -40 -46 17 -38 -8 9 -29 30 -13 45 -26 45 -38 0 -11 14
-26 34 -37 62 -33 70 -106 12 -106 -19 0 -18 -3 10 -25 18 -14 35 -36 38 -50
8 -32 -9 -65 -34 -65 -24 0 -25 -6 -5 -26 52 -52 -30 -96 -108 -58 l-32 15 27
-23 c14 -13 45 -36 68 -52 58 -40 51 -62 -18 -59 -29 1 -52 1 -52 -1 0 -2 23
-19 51 -36 38 -25 49 -38 47 -54 -5 -34 -52 -32 -138 5 -91 39 -97 44 -80 64
14 17 50 21 50 5 0 -13 91 -53 99 -44 3 4 -1 9 -9 12 -23 8 -110 93 -110 108
0 23 17 24 61 4 69 -31 77 -23 19 18 -29 20 -63 50 -74 65 -21 28 -21 29 -2
43 17 12 23 12 40 -1 60 -43 126 -65 126 -41 0 9 -6 20 -12 26 -7 5 -38 30
-69 55 -64 52 -89 96 -71 126 7 10 12 27 12 36 1 41 15 47 61 25 57 -27 99
-37 99 -24 0 6 -18 25 -40 42 -22 17 -40 38 -40 46 0 16 -37 27 -71 22 -19 -2
-25 2 -27 20 -2 13 2 29 8 37 6 7 8 24 5 38 -9 35 8 41 52 17 49 -26 106 -27
101 -2 -2 9 -20 26 -41 37 -20 11 -37 26 -37 33 0 16 4 15 49 -8z m-4824 -140
c8 -26 -11 -50 -39 -50 -25 0 -216 -95 -279 -139 -38 -26 -128 -111 -117 -111
3 1 29 9 58 19 104 36 191 -16 152 -90 -17 -31 -66 -50 -138 -52 -56 -2 -72 2
-100 21 -28 20 -32 29 -32 67 0 45 22 79 90 143 45 41 173 125 259 169 95 48
136 54 146 23z m4203 -50 c68 -16 147 -30 176 -30 62 0 79 -12 64 -46 -13 -28
-41 -30 -138 -10 -36 7 -70 11 -77 9 -13 -5 -33 -64 -33 -99 0 -30 63 -54 140
-54 65 0 77 -9 59 -41 -10 -20 -16 -21 -88 -15 -74 6 -344 65 -356 78 -4 3 -2
16 5 27 8 16 20 21 48 21 21 0 42 -4 48 -9 5 -6 27 -13 50 -16 l41 -7 16 68
c10 37 16 69 14 70 -2 2 -32 11 -68 19 -96 24 -91 21 -77 45 17 26 31 26 176
-10z m-5100 -117 c110 -54 165 -139 142 -222 -24 -91 -108 -141 -250 -149
l-89 -5 -29 -76 c-16 -42 -32 -86 -36 -98 -8 -26 -37 -30 -60 -8 -13 14 -13
21 4 68 34 98 78 212 133 347 30 74 57 143 61 153 8 26 58 22 124 -10z m2056
-100 c3 -7 8 -59 11 -115 4 -57 11 -130 16 -163 14 -92 13 -94 -18 -86 -30 8
-49 38 -55 86 -2 20 1 29 10 28 18 -4 14 15 -8 37 -11 11 -20 26 -20 34 0 8
-4 18 -10 21 -12 8 -13 55 -1 55 5 0 12 24 16 53 4 28 9 55 11 59 7 11 43 5
48 -9z m2883 -97 c23 -6 50 -19 60 -28 15 -13 68 -38 191 -88 29 -13 28 -44
-3 -58 -39 -18 -139 -31 -250 -33 -91 -2 -100 0 -100 17 0 14 11 20 42 27 38
7 43 12 53 45 15 56 13 61 -35 84 -43 21 -54 36 -38 52 4 3 14 4 22 0 9 -4 35
-12 58 -18z m-4267 -156 c0 -10 -5 -22 -10 -25 -15 -9 -2 -25 22 -25 30 0 88
-30 88 -46 0 -14 -24 -12 -100 7 -45 11 -56 1 -120 -125 -48 -95 -62 -146 -40
-146 11 0 88 77 127 128 24 30 56 42 67 24 2 -4 -12 -35 -33 -67 -47 -74 -58
-105 -37 -105 19 0 106 75 128 112 10 15 22 28 28 28 22 0 20 -28 -4 -71 -27
-47 -36 -88 -13 -58 73 97 131 149 147 133 5 -5 -23 -42 -62 -84 -39 -41 -77
-85 -85 -97 -9 -14 -25 -23 -41 -23 -24 0 -24 2 -18 46 l6 46 -40 -36 c-22
-20 -46 -36 -53 -36 -25 0 -40 19 -40 48 l0 30 -32 -24 c-57 -43 -101 -24 -93
40 l4 35 -38 -35 c-42 -38 -68 -43 -93 -17 -23 22 -15 78 22 151 23 46 33 58
56 60 36 4 35 -10 -8 -81 -65 -107 -53 -141 24 -72 21 19 42 35 47 35 7 0 73
122 92 170 1 4 -12 10 -29 14 -35 7 -59 23 -59 39 0 6 23 8 65 4 39 -4 65 -2
65 3 0 16 40 51 50 45 6 -4 10 -15 10 -25z m-366 -39 c13 -14 14 -21 6 -26
-29 -18 -50 -90 -50 -177 0 -65 -4 -90 -16 -102 -22 -23 -37 -20 -70 14 -16
16 -39 30 -51 30 -34 0 -28 16 27 78 27 30 48 57 47 59 -2 1 -22 -4 -45 -13
-27 -11 -44 -26 -53 -46 -15 -37 -64 -71 -102 -71 -43 0 -81 45 -73 86 17 83
94 181 135 170 12 -3 21 -9 21 -14 0 -5 7 -9 15 -9 17 0 35 -30 35 -59 0 -24
17 -26 44 -6 11 8 28 15 37 15 11 0 23 16 35 45 18 49 32 55 58 26z m5148 -51
c-12 -10 -26 -20 -31 -22 -5 -2 -12 -15 -16 -29 -5 -19 0 -34 20 -57 41 -49
75 -50 160 -7 75 38 111 42 128 14 32 -52 -89 -169 -175 -169 -32 0 -16 21 27
36 42 14 95 64 95 89 0 24 -36 17 -110 -21 -70 -36 -85 -37 -138 -11 -30 14
-52 56 -52 98 0 24 10 40 47 75 33 29 51 40 58 33 7 -7 3 -16 -13 -29z m-5408
-337 c4 -9 1 -20 -6 -25 -19 -12 -93 -33 -181 -53 -44 -9 -75 -21 -70 -25 4
-4 74 -29 156 -55 123 -40 147 -51 147 -68 0 -24 -18 -21 -155 27 -55 19 -134
43 -175 54 -72 19 -105 42 -85 60 6 5 71 23 145 41 74 18 146 38 160 46 34 19
57 19 64 -2z m5236 7 c0 -5 -15 -16 -33 -24 -47 -19 -80 -62 -66 -87 5 -10 14
-19 18 -19 5 0 23 -13 40 -29 43 -40 41 -73 -8 -122 -41 -41 -48 -44 -70 -30
-19 12 -6 41 18 41 21 0 51 35 51 60 0 8 -23 36 -51 62 -59 54 -59 72 -3 126
25 24 43 32 69 32 19 0 35 -4 35 -10z m-493 -35 c43 -14 93 -25 112 -25 29 0
33 -3 28 -22 -3 -13 -11 -54 -17 -93 -12 -75 -31 -108 -52 -87 -9 9 -9 21 0
50 7 22 12 56 12 76 0 34 -2 36 -34 36 -31 0 -35 -4 -41 -32 -10 -45 -24 -61
-41 -47 -9 8 -10 17 -3 35 16 43 11 71 -13 77 -30 8 -35 3 -43 -42 -7 -41 -38
-80 -49 -62 -4 6 -2 19 4 30 5 11 10 42 10 69 0 27 3 52 7 55 11 12 40 8 120
-18z m655 -23 c15 -9 30 -22 32 -29 10 -25 -17 -61 -64 -87 -48 -26 -60 -45
-60 -99 0 -22 -4 -28 -17 -25 -25 5 -28 53 -8 142 9 41 16 82 15 93 -1 10 -2
22 -1 27 1 12 71 -3 103 -22z m190 -72 c87 0 73 -23 -18 -30 -61 -4 -69 -7
-72 -27 -3 -18 3 -23 38 -30 50 -10 54 -28 6 -29 -48 -2 -66 -10 -66 -33 0
-17 8 -20 52 -23 67 -4 79 -28 14 -28 -24 0 -56 -4 -70 -9 -43 -17 -50 6 -26
97 11 44 20 90 20 102 0 20 4 22 31 16 17 -3 58 -6 91 -6z m-4856 -77 c7 -10
14 -30 14 -45 0 -24 -6 -29 -42 -38 -52 -14 -173 -56 -247 -85 -47 -19 -50
-23 -30 -28 13 -4 89 -7 169 -7 219 -1 257 -12 262 -80 l3 -34 -75 -13 c-116
-20 -290 -64 -335 -84 -56 -26 -75 -24 -75 6 0 41 69 66 350 128 62 14 63 15
30 20 -19 3 -114 8 -210 11 -188 6 -200 10 -200 63 0 29 56 58 209 108 62 20
111 38 109 40 -2 1 -97 -3 -213 -11 -116 -8 -216 -12 -222 -9 -7 2 -13 13 -13
24 0 11 6 23 13 28 6 4 104 10 217 13 113 3 220 7 239 8 22 1 38 -4 47 -15z
m1647 -178 c20 -33 83 -108 140 -166 l103 -105 54 -1 55 -1 -47 7 c-50 7 -76
21 -39 21 12 0 19 4 16 10 -4 7 -13 6 -26 -1 -25 -13 -35 -6 -15 11 13 10 13
14 1 26 -7 8 -23 14 -35 14 -19 0 -20 1 -6 16 9 8 16 18 16 21 0 2 -21 25 -47
49 -36 33 -42 43 -25 39 30 -9 28 9 -4 23 -14 7 -23 16 -19 21 3 5 -5 11 -17
13 -25 4 -37 28 -14 28 9 0 16 -4 16 -8 0 -5 28 -22 61 -38 55 -26 73 -29 153
-29 74 0 100 5 139 23 26 12 47 26 47 30 0 4 16 18 35 31 19 13 33 27 30 31
-8 12 27 22 37 10 4 -5 6 -8 2 -6 -7 5 -44 -31 -44 -43 0 -6 -17 -26 -37 -46
-21 -21 -33 -34 -26 -31 6 3 14 2 18 -4 4 -6 -5 -10 -20 -10 -20 0 -26 -4 -21
-15 3 -8 -3 -20 -13 -27 -11 -8 -21 -25 -23 -38 -1 -14 -8 -25 -15 -25 -15 0
-42 -35 -43 -54 0 -11 3 -11 15 -1 8 6 19 9 24 5 7 -3 8 0 5 10 -4 10 -2 14 8
10 9 -4 35 17 69 55 30 34 71 80 92 103 53 57 66 87 74 157 3 33 9 60 13 60 8
0 39 -76 52 -129 51 -210 51 -530 -1 -831 -38 -223 -161 -709 -210 -833 -5
-12 -12 -31 -15 -41 -4 -10 -9 -17 -11 -14 -2 2 -20 155 -40 339 -19 184 -42
397 -50 474 -31 289 -32 261 14 337 23 37 41 71 41 75 0 4 -22 43 -50 86 l-49
77 -59 0 -59 0 -45 -72 c-25 -40 -48 -79 -52 -85 -4 -7 12 -44 35 -84 l42 -70
-22 -282 c-12 -155 -26 -325 -31 -377 -5 -52 -12 -139 -15 -193 -4 -55 -10
-95 -14 -90 -11 11 -99 307 -170 568 -95 350 -121 504 -121 705 1 160 29 343
63 403 l22 39 10 -59 c7 -35 25 -82 48 -118z m2269 135 c102 -46 166 -70 190
-70 25 0 32 -20 14 -38 -14 -14 -40 -17 -151 -17 -73 0 -136 -3 -140 -6 -9
-10 152 -52 218 -57 31 -2 60 -9 63 -14 10 -16 -17 -38 -46 -38 -30 0 -275 60
-324 79 -28 11 -28 12 -10 32 27 31 59 40 149 48 l80 6 -69 33 c-37 17 -74 32
-82 32 -17 0 -18 22 -2 38 16 16 8 18 110 -28z m-4488 -52 c23 -37 -5 -43
-227 -49 -117 -4 -219 -10 -228 -13 -9 -4 -21 0 -29 9 -11 13 -11 19 4 33 14
15 46 18 221 22 112 3 207 9 211 13 12 12 35 4 48 -15z m-23 -128 c57 -29 99
-76 99 -111 0 -15 -4 -31 -10 -34 -11 -7 -60 38 -60 54 0 15 -105 61 -139 61
-28 0 -34 -6 -71 -80 -45 -90 -72 -110 -145 -110 -84 0 -188 62 -183 109 5 40
50 41 85 3 35 -37 64 -52 101 -52 41 0 73 29 111 99 17 33 42 68 54 76 29 22
102 15 158 -15z m4374 -49 c51 -29 159 -132 182 -173 18 -32 16 -46 -7 -58
-16 -9 -22 -7 -27 7 -15 44 -123 159 -179 192 -33 19 -36 20 -29 4 24 -59 27
-72 22 -95 -4 -16 -18 -30 -37 -38 -25 -10 -34 -10 -55 4 -42 28 -33 107 18
164 27 29 52 28 112 -7z m569 3 c30 -12 16 -34 -37 -58 -56 -24 -98 -69 -136
-143 -47 -93 -12 -129 108 -112 66 9 101 5 101 -12 0 -18 -55 -31 -137 -33
-74 -1 -84 1 -108 24 -38 35 -44 57 -29 106 30 101 93 185 159 215 44 20 55
22 79 13z m185 -13 c18 -12 9 -100 -21 -191 -11 -36 -23 -92 -27 -125 -5 -52
-9 -60 -28 -63 -36 -5 -37 33 -4 163 17 66 31 137 31 157 0 63 15 80 49 59z
m188 -161 c16 -75 20 -225 4 -224 -6 1 -15 2 -21 3 -5 0 -10 15 -10 31 0 22
-5 30 -17 30 -10 0 -28 3 -40 6 -18 5 -27 -1 -44 -30 -22 -37 -56 -51 -46 -18
14 44 34 89 49 112 9 14 27 48 39 75 41 96 67 100 86 15z m172 26 c9 -11 4
-34 -23 -108 -19 -51 -38 -105 -41 -120 l-7 -28 66 0 c51 0 68 -4 73 -15 3 -9
4 -17 2 -19 -2 -2 -44 -5 -94 -7 l-90 -4 0 45 c1 39 38 179 65 248 11 25 32
29 49 8z m-1239 -51 c33 -14 65 -25 72 -25 35 -1 39 -15 18 -75 -23 -67 -35
-84 -50 -69 -6 6 -3 26 8 56 18 52 17 56 -18 60 -17 2 -27 -4 -37 -22 -15 -30
-39 -33 -35 -5 8 49 6 60 -10 63 -12 2 -22 -8 -32 -32 -8 -20 -22 -36 -30 -36
-20 0 -20 1 -1 36 8 16 15 36 15 45 0 36 21 37 100 4z m-4316 -50 c-7 -16 -37
-20 -229 -33 -98 -6 -142 -5 -147 2 -22 33 24 44 187 47 61 1 124 5 140 8 34
8 57 -3 49 -24z m539 -4 c36 -14 46 -84 17 -123 l-20 -28 37 -16 c33 -13 46
-14 91 -3 29 7 55 16 58 20 3 5 -2 22 -11 38 -39 77 1 96 45 21 25 -42 28 -44
67 -42 51 4 68 -22 25 -40 -15 -7 -28 -13 -30 -14 -1 0 9 -27 24 -58 24 -52
26 -86 6 -86 -4 0 -25 29 -45 65 -21 36 -40 65 -43 65 -4 0 -33 -7 -66 -15
-75 -20 -159 -57 -177 -78 -22 -27 3 -48 53 -46 23 1 46 0 51 -2 6 -1 25 1 44
5 25 6 37 4 48 -7 25 -25 9 -42 -56 -62 -74 -22 -92 -39 -65 -60 10 -8 36 -15
57 -15 20 0 37 -4 37 -9 0 -5 13 -3 28 5 16 7 39 15 53 16 19 2 25 -2 27 -24
3 -24 -1 -28 -31 -33 -35 -7 -96 -49 -86 -59 3 -3 19 -2 35 3 65 18 168 23
188 8 32 -24 11 -34 -88 -41 -53 -3 -108 -9 -124 -12 -56 -11 -82 48 -40 93
l21 23 -32 0 c-42 0 -81 38 -81 79 0 16 5 33 10 36 19 11 10 23 -17 23 -34 0
-63 34 -63 76 0 39 7 48 48 74 l34 20 -33 16 c-18 9 -51 16 -74 16 -49 0 -71
19 -86 75 -8 29 -7 41 5 60 24 37 107 56 159 36z m-667 -86 c73 -17 114 -34
114 -48 0 -31 -37 -87 -73 -111 -70 -45 -201 -32 -241 25 -39 57 -4 125 71
139 56 11 63 11 129 -5z m127 -251 c72 -3 143 0 164 5 71 20 83 -35 19 -84
-18 -13 -87 -47 -155 -75 -148 -61 -201 -87 -201 -100 0 -14 59 -12 143 4 40
8 92 18 117 21 25 4 80 19 123 33 66 21 80 23 88 11 13 -20 11 -53 -3 -71 -14
-18 -236 -66 -403 -88 -49 -7 -114 -16 -144 -21 -82 -14 -81 -14 -81 34 0 38
5 47 53 92 36 34 86 66 159 100 59 28 107 53 108 58 0 7 -135 13 -260 11 -67
-1 -80 5 -80 42 0 41 18 47 125 39 55 -3 157 -9 228 -11z m4640 -82 c29 -31
167 -445 167 -499 0 -8 -14 -13 -38 -13 -60 0 -121 46 -199 149 -37 50 -71 87
-74 83 -4 -4 -4 -27 1 -52 16 -83 31 -221 25 -230 -9 -14 -61 -12 -73 3 -6 6
-17 80 -26 162 -20 189 -31 258 -47 283 -15 25 -5 52 19 52 40 0 89 -49 174
-174 47 -71 93 -136 102 -144 15 -15 16 -14 16 15 0 38 -70 238 -109 309 -20
37 -25 56 -18 63 17 17 62 13 80 -7z m-395 -152 c78 -196 92 -285 62 -380 -28
-91 -53 -118 -122 -132 -68 -14 -98 -4 -158 55 -43 43 -85 120 -140 262 -17
44 -42 96 -54 116 -17 26 -21 40 -14 52 12 23 80 23 100 0 9 -10 34 -75 57
-145 46 -144 68 -193 112 -242 36 -41 61 -51 89 -36 29 15 48 58 55 126 9 79
-10 154 -76 290 -57 118 -56 126 15 122 l40 -3 34 -85z m857 50 c117 -100 148
-163 125 -250 -10 -36 -9 -45 3 -51 38 -22 60 -47 54 -62 -9 -24 -32 -21 -63
8 -15 14 -28 25 -29 25 0 0 -16 -11 -35 -25 -47 -35 -90 -33 -134 6 -43 37
-56 80 -55 174 1 86 14 126 58 170 34 35 40 36 76 5z m331 22 c15 -10 54 -150
54 -194 0 -63 -27 -115 -65 -128 -63 -21 -94 14 -143 157 -18 51 -32 97 -32
103 0 5 11 10 25 10 25 0 34 -18 51 -111 8 -41 37 -101 57 -117 8 -7 22 -10
31 -6 38 15 39 121 2 213 -20 50 -23 67 -14 73 16 10 20 10 34 0z m252 -14
c-3 -7 -27 -21 -54 -31 -66 -24 -79 -38 -64 -67 8 -15 17 -19 28 -14 9 4 30 9
46 12 44 7 28 -19 -22 -36 -33 -11 -42 -19 -42 -36 0 -33 8 -36 45 -20 19 8
44 14 55 14 31 0 24 -27 -9 -33 -15 -3 -42 -18 -60 -33 -38 -32 -57 -22 -66
35 -3 20 -13 65 -21 100 -16 67 -12 79 26 82 8 0 33 9 55 19 47 22 89 26 83 8z
m-828 -52 c6 -8 25 -79 42 -158 16 -79 32 -153 35 -165 4 -19 1 -23 -20 -23
-30 0 -37 19 -62 154 -9 49 -23 109 -31 133 -9 25 -13 51 -10 59 7 18 30 18
46 0z m-3945 -108 c14 -6 25 -14 26 -17 6 -46 9 -60 14 -83 7 -25 4 -27 -36
-38 -61 -15 -99 -31 -99 -41 0 -4 20 -11 45 -15 49 -7 58 -18 23 -28 -38 -10
-53 -7 -77 15 -16 15 -21 29 -18 46 3 19 -1 27 -18 33 -45 17 -72 84 -42 107
38 31 136 42 182 21z m199 -89 c23 -34 33 -40 60 -39 49 3 56 1 56 -15 0 -9
-12 -20 -26 -25 l-26 -10 22 -33 c36 -55 44 -77 33 -88 -7 -7 -24 9 -53 48
-24 32 -44 60 -46 62 -5 6 -139 -41 -186 -67 -49 -26 -66 -61 -30 -63 60 -2
134 0 150 6 21 6 56 -20 47 -35 -3 -5 -34 -18 -70 -30 -59 -20 -80 -40 -56
-54 4 -3 52 -8 106 -10 54 -3 103 -10 109 -16 6 -6 11 -33 11 -61 0 -48 1 -50
35 -59 19 -4 44 -10 55 -12 11 -2 21 -11 23 -19 2 -13 -9 -20 -45 -28 -81 -20
-76 -26 20 -26 88 0 92 -1 95 -22 3 -20 -1 -23 -29 -23 -35 0 -119 -36 -119
-51 0 -5 25 -9 55 -9 30 0 55 -4 55 -9 0 -21 -108 -29 -128 -9 -23 23 -14 57
21 79 l32 20 -61 -6 c-46 -5 -63 -3 -72 8 -19 22 -5 41 44 62 l45 18 -37 13
c-21 7 -41 11 -46 8 -4 -3 -27 -6 -50 -6 -33 0 -47 5 -65 26 -24 29 -30 65
-12 83 7 7 1 12 -22 17 -18 3 -38 11 -46 17 -16 14 -17 53 -3 80 10 17 7 19
-21 19 -72 0 -93 70 -35 116 33 26 137 74 162 74 24 0 25 20 4 55 -21 34 -20
55 3 55 7 0 25 -19 41 -41z m-993 -29 c28 -15 24 -57 -11 -115 -16 -27 -30
-55 -30 -61 0 -6 18 -14 39 -18 48 -7 191 -67 193 -81 3 -20 -35 -16 -90 8
-32 14 -76 30 -99 35 -40 9 -43 8 -43 -12 0 -11 9 -36 20 -54 17 -28 18 -33 5
-38 -31 -12 -54 24 -96 150 -10 33 -30 78 -44 102 l-25 42 24 15 c48 32 123
45 157 27z m-199 -128 c41 -17 68 -68 68 -127 0 -58 -16 -87 -59 -105 -70 -29
-127 46 -123 163 1 38 4 72 7 77 7 12 71 7 107 -8z m-144 -139 c46 -173 49
-199 24 -205 -30 -8 -79 26 -110 77 -15 24 -31 45 -36 45 -5 0 -6 -34 -2 -79
6 -73 5 -79 -14 -84 -22 -6 -31 5 -93 109 -20 34 -52 76 -69 93 -27 27 -30 34
-18 41 27 18 38 10 87 -55 50 -68 66 -80 59 -42 -3 12 -8 47 -11 78 -5 44 -3
58 8 62 22 8 39 -9 90 -89 76 -120 86 -107 37 51 -16 53 -27 101 -24 106 3 5
13 9 23 9 14 0 24 -23 49 -117z m5442 32 c72 -12 80 -16 80 -31 0 -8 -10 -30
-23 -47 -32 -44 -60 -111 -55 -133 3 -16 13 -10 60 34 31 30 61 51 67 48 5 -4
15 3 21 14 11 21 44 27 55 9 4 -6 -2 -20 -13 -32 -11 -12 -28 -38 -37 -57 -18
-34 -17 -34 39 18 79 72 130 71 81 -1 -37 -53 -30 -66 13 -26 51 49 82 69 108
69 29 0 41 -32 17 -45 -28 -16 -73 -66 -73 -81 0 -19 19 -17 58 6 38 24 52 25
52 6 0 -15 -75 -56 -102 -56 -8 0 -23 9 -33 20 -18 20 -18 22 -2 49 27 46 20
46 -28 2 -54 -49 -90 -55 -83 -13 3 15 8 36 13 47 4 11 -14 -2 -39 -30 -39
-42 -48 -48 -63 -39 -12 8 -17 21 -15 39 l3 28 -36 -31 c-53 -47 -114 -41
-115 13 -1 19 -2 19 -23 -5 -65 -73 -137 -94 -159 -45 l-11 24 -40 -45 c-63
-71 -126 -93 -174 -59 -21 15 -22 14 -33 -25 -6 -22 -19 -44 -30 -50 -50 -27
-83 1 -96 78 -9 59 -22 52 -26 -15 -4 -75 -24 -81 -33 -9 -4 32 -13 57 -21 60
-8 3 -14 14 -14 24 0 29 25 45 59 37 24 -5 32 -2 41 15 13 24 57 24 52 0 -17
-72 -5 -160 22 -160 21 0 26 24 36 155 9 130 16 158 50 193 19 20 30 23 83 20
l62 -3 3 -35 c8 -76 -42 -163 -98 -175 -17 -4 -30 -10 -30 -13 0 -19 42 -72
56 -72 24 0 75 60 113 132 56 108 79 142 118 176 40 35 39 35 143 17z m-3490
-80 c19 -19 39 -35 46 -35 12 0 35 -22 114 -111 22 -26 56 -57 75 -70 19 -13
35 -27 35 -31 0 -5 -36 -8 -79 -8 -79 0 -80 0 -100 33 -11 17 -32 45 -46 61
-14 16 -25 33 -25 38 0 5 -6 15 -12 22 -7 8 -20 24 -28 37 -25 38 -63 70 -77
65 -16 -7 -17 6 -1 22 23 23 63 13 98 -23z m-54 -59 c16 -19 49 -68 74 -110
25 -41 50 -76 55 -77 6 -1 -6 -5 -25 -8 -19 -4 -42 -5 -50 -3 -18 4 -61 67
-63 93 -1 10 -5 19 -9 19 -4 0 -8 7 -8 15 0 9 6 12 15 9 8 -4 15 -2 15 4 0 9
-38 24 -65 26 -12 1 -19 32 -11 52 9 24 43 15 72 -20z m-811 -18 c53 -48 85
-96 85 -127 0 -33 -16 -25 -49 23 -17 24 -36 46 -43 49 -25 8 -86 -33 -128
-85 -86 -108 -130 -224 -130 -344 0 -86 15 -105 89 -112 60 -5 108 20 152 81
44 61 40 67 -40 67 -89 0 -123 12 -119 43 3 21 7 22 104 22 111 0 136 -10 148
-61 15 -56 -81 -192 -151 -215 -77 -25 -169 18 -228 106 -25 37 -26 46 -22
115 5 75 30 165 69 250 48 105 155 230 197 230 11 0 40 -19 66 -42z m2659 -33
c8 -12 29 -28 48 -35 44 -19 62 -45 69 -105 4 -27 13 -80 20 -117 11 -56 11
-71 -1 -93 -7 -14 -17 -25 -22 -25 -5 0 -7 4 -3 9 10 16 -81 -19 -103 -40 -50
-46 -140 -101 -190 -115 -44 -13 -62 -14 -103 -4 -44 11 -68 30 -36 30 8 0 7
4 -3 10 -10 6 -11 10 -3 10 18 0 5 60 -20 88 -28 31 -35 28 -35 -15 0 -21 -1
-66 -3 -100 l-3 -62 -69 -11 c-50 -9 -67 -16 -63 -25 3 -8 10 -60 16 -117 5
-57 13 -120 16 -140 5 -36 4 -38 -20 -38 -35 0 -42 20 -49 130 -4 52 -9 110
-13 129 l-7 33 -62 -7 c-43 -4 -65 -3 -70 5 -13 21 12 32 94 40 44 5 86 12 92
16 21 12 5 217 -25 317 -31 103 -30 97 -11 97 8 0 15 6 15 14 0 28 69 34 133
12 35 -13 40 -12 65 8 42 35 91 62 166 91 122 49 154 50 180 10z m912 -1 c58
-38 68 -115 34 -267 -19 -88 -75 -237 -105 -284 -23 -35 -41 -38 -74 -11 -39
31 -141 188 -171 262 -13 32 -35 69 -48 81 l-26 24 30 42 c38 56 137 135 199
159 57 23 120 20 161 -6z m-4121 -34 c3 -5 -6 -33 -21 -61 -30 -61 -29 -89 11
-173 26 -56 27 -92 2 -84 -6 3 -25 32 -42 65 -42 85 -53 95 -120 125 -33 15
-61 32 -63 37 -7 22 29 22 71 2 24 -12 50 -21 59 -21 13 0 32 38 54 108 4 14
40 16 49 2z m-247 -122 c21 -43 82 -238 82 -262 0 -19 -24 -21 -37 -3 -6 6
-13 27 -17 46 -10 55 -21 62 -67 43 -43 -18 -43 -16 -23 -104 5 -21 3 -28 -9
-28 -16 0 -25 21 -73 160 -33 97 -34 115 -10 115 15 0 24 -14 39 -55 10 -30
22 -58 26 -63 4 -4 24 0 45 8 34 15 37 18 31 46 -4 17 -13 42 -21 57 -8 15
-14 35 -14 45 0 25 35 21 48 -5z m-210 -30 c-2 -7 -25 -24 -51 -38 -32 -17
-46 -30 -43 -40 2 -8 25 -64 50 -125 25 -60 46 -113 46 -117 0 -13 -37 -9 -47
5 -6 6 -18 37 -28 67 -46 145 -65 168 -109 135 -11 -8 -28 -15 -38 -15 -33 0
-19 27 25 46 23 10 69 36 101 56 59 38 101 49 94 26z m2754 -12 c15 -11 15
-16 3 -52 -26 -71 -19 -164 21 -291 38 -120 40 -159 7 -195 -22 -24 -44 -23
-103 7 -49 25 -80 32 -80 17 0 -9 -72 -32 -99 -32 -25 0 -61 45 -61 76 0 39
-16 36 -29 -6 -12 -40 -61 -90 -89 -90 -9 0 -29 12 -44 27 -27 26 -28 30 -28
127 l0 101 -45 -48 c-25 -27 -45 -56 -45 -64 0 -9 -8 -41 -17 -70 -20 -62 -69
-113 -109 -113 -28 0 -84 49 -84 74 0 9 -4 16 -10 16 -5 0 -10 -5 -10 -12 0
-39 -74 -64 -99 -34 -20 24 -24 107 -8 174 12 52 12 62 1 62 -8 0 -14 -10 -15
-22 0 -34 -33 -113 -46 -113 -6 0 -26 -20 -43 -45 -42 -59 -57 -70 -94 -70
-40 0 -52 9 -66 45 l-11 30 -21 -27 c-22 -32 -58 -37 -79 -11 -8 9 -16 46 -20
82 -3 47 -7 60 -13 46 -4 -11 -15 -40 -25 -64 -33 -86 -73 -80 -73 10 l0 53
-19 -24 c-50 -68 -61 -78 -84 -84 -34 -9 -83 18 -96 52 -19 48 -3 177 31 250
30 63 31 64 63 58 48 -9 70 -41 63 -93 -3 -24 -15 -61 -26 -83 -18 -36 -24
-40 -57 -40 l-36 0 6 -46 c2 -25 10 -51 16 -57 20 -20 64 14 96 75 16 31 38
59 47 61 12 4 18 15 18 34 0 38 22 68 44 60 20 -8 20 -28 1 -91 -28 -93 -16
-105 19 -18 41 101 60 126 88 111 15 -8 18 -17 14 -37 -19 -80 -36 -170 -36
-194 0 -77 57 16 110 179 25 80 42 93 87 71 25 -12 28 -20 31 -66 5 -86 -40
-160 -89 -150 -17 4 -16 -79 1 -96 25 -25 90 37 115 110 7 21 19 39 27 39 17
0 29 83 16 109 -15 28 6 66 37 66 20 0 25 -5 25 -25 0 -18 5 -25 20 -25 11 0
20 5 20 10 0 14 26 12 38 -3 8 -10 5 -33 -15 -88 -25 -72 -35 -170 -19 -186
16 -16 53 50 71 125 25 111 53 180 79 197 18 12 27 12 61 1 37 -12 55 -31 91
-92 10 -17 14 -14 42 31 17 28 35 49 39 47 4 -2 14 21 21 50 8 29 18 59 24 65
16 19 45 16 61 -7 13 -19 12 -30 -9 -98 -43 -139 -50 -287 -14 -287 8 0 23 16
33 36 18 37 72 242 83 317 8 51 33 70 71 53 28 -13 28 -21 -1 -121 -19 -65
-32 -206 -22 -244 3 -14 12 -26 20 -26 17 0 32 29 60 120 14 42 30 76 38 78 9
2 19 27 27 65 11 58 30 197 31 225 0 16 50 15 72 -2z m2234 -162 c36 -32 83
-54 102 -46 27 10 147 -149 181 -238 25 -66 28 -193 7 -311 -31 -170 -125
-269 -257 -269 -64 0 -106 24 -152 88 -62 84 -86 269 -57 438 23 138 54 263
79 320 24 53 52 58 97 18z m760 -79 c20 -19 44 -333 44 -566 l0 -187 -26 -6
c-58 -15 -133 64 -180 187 -43 115 -66 167 -74 167 -7 0 -11 -38 -26 -270 -4
-52 -11 -101 -16 -108 -13 -15 -50 -16 -66 0 -15 15 -15 106 -2 215 20 156 29
360 18 403 -10 37 -8 44 11 63 25 26 40 20 84 -35 21 -26 46 -91 89 -229 59
-189 71 -219 89 -219 24 0 -1 379 -32 500 l-19 75 22 18 c24 20 60 16 84 -8z
m-6079 -167 c5 -7 10 -23 11 -35 0 -12 13 -50 27 -85 45 -107 46 -117 24 -129
-29 -15 -43 0 -78 84 -37 91 -47 142 -31 162 15 18 34 19 47 3z m3971 -7 c10
-6 8 -18 -11 -57 -14 -27 -37 -85 -52 -129 -46 -133 -64 -135 -111 -12 -15 40
-38 90 -50 113 -29 50 -30 64 -4 64 20 0 56 -63 91 -158 l12 -34 13 24 c8 12
22 46 33 73 50 130 53 133 79 116z m-3071 -59 c20 -15 23 -34 38 -208 9 -105
17 -261 18 -345 l2 -154 -37 -3 c-32 -3 -44 3 -83 39 -66 60 -88 102 -167 312
-15 40 -26 33 -33 -20 -4 -27 -13 -84 -21 -129 -8 -44 -14 -106 -14 -137 l0
-56 -35 -7 c-27 -5 -41 -2 -56 12 -24 22 -24 30 16 264 42 250 45 283 34 324
-21 75 38 91 93 26 26 -30 48 -82 97 -227 35 -103 70 -197 77 -207 13 -19 13
-19 21 0 16 39 -6 349 -32 448 -9 33 -13 66 -11 73 8 19 67 16 93 -5z m3928
-12 c0 -17 -10 -31 -32 -45 -46 -28 -76 -94 -77 -167 -1 -70 3 -74 117 -123
48 -21 79 -42 101 -68 28 -35 31 -46 31 -106 0 -58 -4 -74 -35 -126 -38 -64
-74 -82 -99 -51 -18 21 -5 70 22 81 13 6 28 27 37 52 13 38 13 48 0 85 -14 40
-21 46 -110 89 -120 59 -140 84 -140 178 0 72 27 146 71 192 29 32 45 38 84
36 25 -2 30 -6 30 -27z m-4432 -65 c5 -24 4 -128 -4 -262 -6 -122 -9 -253 -6
-291 6 -79 -3 -96 -50 -90 -47 5 -56 53 -43 233 6 82 11 215 9 295 -1 80 -1
149 0 153 0 5 20 7 43 5 40 -3 43 -5 51 -43z m4095 19 c2 -15 -9 -31 -36 -53
-43 -33 -62 -84 -62 -161 0 -52 28 -79 113 -110 141 -51 187 -177 112 -306
-30 -52 -37 -56 -69 -48 -38 9 -42 77 -5 87 42 11 51 126 13 168 -10 11 -54
37 -98 58 -110 53 -129 75 -134 157 -6 86 13 147 59 196 31 33 43 39 71 36 25
-2 34 -8 36 -24z m-3191 -61 c7 -19 -29 -53 -58 -53 -25 0 -85 -62 -104 -107
-32 -75 -18 -94 106 -151 147 -66 161 -181 37 -304 -39 -40 -53 -48 -83 -48
-42 0 -53 18 -35 59 7 19 21 31 38 34 32 7 82 78 82 118 0 41 -27 66 -125 118
-96 51 -115 73 -115 131 1 71 73 175 144 206 45 19 105 18 113 -3z m3760 -92
c6 -30 17 -111 23 -180 6 -69 15 -144 20 -166 15 -64 13 -75 -15 -75 -31 0
-38 25 -59 222 -9 80 -23 167 -31 194 -17 56 -13 66 23 62 23 -3 28 -10 39
-57z m-2628 -78 c17 -44 40 -123 51 -175 11 -51 28 -112 37 -135 17 -47 12
-73 -14 -73 -29 1 -48 22 -58 65 l-10 40 -72 0 c-39 0 -74 -3 -78 -6 -3 -4
-14 -35 -23 -70 -14 -52 -21 -65 -40 -67 -31 -5 -36 17 -18 78 9 29 13 63 10
75 -3 12 3 36 14 56 21 35 45 118 67 225 14 72 20 83 49 94 30 12 48 -11 85
-107z m-608 70 c11 -13 13 -47 9 -162 -3 -80 -4 -190 -4 -244 l2 -97 -28 0
c-50 0 -53 13 -43 197 5 93 7 198 4 236 -4 39 -2 72 3 77 15 15 42 12 57 -7z
m-230 -24 c56 -14 89 -45 89 -83 0 -48 -23 -78 -114 -146 l-58 -44 6 -61 c3
-33 9 -75 12 -93 6 -31 5 -32 -25 -32 -51 0 -61 38 -61 228 0 90 -5 173 -11
191 -19 54 -8 65 64 57 34 -4 78 -11 98 -17z m1353 -2 c16 -12 16 -14 2 -26
-8 -7 -35 -15 -58 -17 -24 -3 -57 -7 -73 -10 l-30 -4 0 -202 c0 -187 -1 -203
-18 -206 -42 -8 -47 11 -47 198 0 205 -1 208 -73 189 -33 -8 -50 -8 -66 0 -46
25 -10 51 71 52 29 0 96 8 148 18 119 24 122 24 144 8z m115 -31 c9 -11 11
-70 6 -223 -3 -114 -5 -214 -5 -221 0 -9 -10 -12 -27 -10 -38 4 -44 44 -31
188 5 63 7 149 4 191 -3 41 -3 79 1 82 11 12 40 8 52 -7z m1174 -73 c24 -38
53 -93 66 -123 13 -30 36 -79 52 -107 34 -62 36 -73 9 -73 -13 0 -27 14 -40
40 -19 37 -23 39 -53 33 -45 -8 -52 -17 -52 -71 0 -35 -4 -47 -15 -47 -11 0
-16 14 -18 50 -2 28 -7 54 -12 59 -5 5 -6 21 -4 36 3 15 1 75 -5 135 -11 106
-6 135 20 135 5 0 28 -30 52 -67z m-960 7 c14 -11 31 -20 39 -20 25 0 88 -100
88 -139 0 -64 -24 -127 -62 -164 -34 -32 -45 -37 -86 -37 -80 1 -112 41 -112
142 1 66 40 179 76 219 21 24 25 24 57 -1z m-1185 -57 c45 -33 40 -50 -34
-119 -37 -35 -66 -65 -63 -67 2 -2 18 -11 34 -22 44 -27 175 -156 169 -166
-11 -18 -32 -8 -85 42 -69 65 -129 110 -140 104 -4 -3 -6 -32 -3 -65 4 -55 3
-60 -15 -60 -11 0 -22 8 -25 18 -4 15 -11 331 -7 356 2 17 141 0 169 -21z
m1953 0 c43 -25 44 -84 3 -146 l-25 -37 25 -60 c24 -60 20 -84 -10 -59 -20 16
-38 60 -64 156 -12 43 -30 93 -41 111 -10 18 -19 37 -19 43 0 16 100 10 131
-8z m-423 -12 c9 -5 15 -53 19 -164 6 -144 5 -157 -11 -157 -34 0 -71 51 -111
155 -6 16 -11 7 -21 -40 -7 -33 -13 -72 -14 -87 0 -28 -14 -35 -38 -19 -11 6
-10 23 3 93 9 47 17 112 18 144 1 31 8 59 14 61 20 7 50 -45 77 -133 36 -113
51 -102 37 27 -5 52 -13 102 -16 112 -5 12 -2 17 11 17 11 0 25 -4 32 -9z"/>
<path d="M6034 5818 c-61 -62 -94 -105 -94 -120 0 -16 42 -7 80 17 22 14 45
25 51 25 13 0 126 67 134 80 6 10 -74 60 -96 60 -8 0 -42 -28 -75 -62z"/>
<path d="M261 5698 c-19 -51 -36 -99 -39 -105 -5 -17 101 -18 164 -2 93 24
135 103 78 148 -28 22 -113 51 -149 51 -17 0 -26 -16 -54 -92z"/>
<path d="M156 5424 c-14 -44 -26 -87 -26 -96 0 -45 86 -50 179 -10 116 49 130
111 35 154 -26 11 -73 22 -104 25 l-58 6 -26 -79z"/>
<path d="M1010 5393 c-75 -51 -170 -195 -170 -256 0 -45 33 -32 101 41 80 84
135 182 119 212 -13 24 -19 25 -50 3z"/>
<path d="M3455 4711 c-46 -8 -85 -27 -102 -50 -15 -19 -17 -58 -3 -66 6 -4 4
-17 -5 -36 -9 -16 -19 -59 -22 -94 l-6 -65 29 0 c16 0 51 11 78 25 65 33 86
33 86 -1 0 -25 -3 -26 -33 -21 -19 3 -40 1 -48 -4 -8 -5 -12 -9 -9 -9 3 -1 49
-3 102 -6 l97 -5 7 36 c3 19 9 35 13 35 3 0 23 -11 43 -25 42 -29 63 -32 72
-10 23 61 -92 121 -215 113 l-69 -5 32 31 c31 29 37 31 108 31 61 -1 83 -5
118 -25 45 -25 77 -64 67 -81 -4 -5 -1 -8 7 -7 8 2 13 -6 13 -21 0 -14 6 -26
13 -29 7 -2 10 -8 6 -13 -3 -5 0 -9 5 -9 14 0 14 17 0 26 -6 3 -9 14 -6 24 6
24 -11 118 -28 150 -19 36 -60 76 -98 93 -37 17 -194 28 -252 18z"/>
<path d="M2800 4684 c-67 -21 -123 -64 -136 -104 -25 -77 -27 -100 -8 -100 10
0 32 14 50 31 37 36 128 62 184 53 72 -11 91 -16 86 -22 -3 -3 -2 -10 3 -16 7
-8 -12 -11 -62 -11 -121 -1 -210 -63 -177 -124 13 -26 13 -26 58 4 46 31 55
31 72 0 20 -37 36 -40 187 -29 72 5 82 8 87 28 12 45 6 109 -14 141 -18 29
-18 34 -5 45 33 28 4 78 -62 105 -46 19 -202 19 -263 -1z"/>
<path d="M3020 4114 c-25 -64 -2 -126 51 -139 14 -3 45 1 71 9 48 17 128 15
201 -5 92 -25 145 18 131 107 -7 48 -27 62 -24 17 3 -45 1 -49 -15 -26 -8 12
-35 29 -59 38 -41 16 -49 16 -90 2 -46 -16 -107 -9 -121 13 -12 19 -99 -9
-121 -38 -9 -12 -10 -8 -6 16 5 39 -5 42 -18 6z"/>
<path d="M3120 3818 c-19 -5 -51 -22 -70 -37 -19 -15 -43 -30 -52 -34 -10 -3
-18 -11 -18 -17 0 -6 8 -14 18 -17 9 -4 19 -10 22 -14 3 -4 31 -21 63 -38 52
-28 67 -31 152 -33 83 -1 99 2 149 26 31 15 56 31 56 35 0 5 14 11 30 15 17 3
30 9 29 13 0 5 -41 32 -91 61 -83 49 -93 53 -132 46 -40 -7 -59 -7 -101 0 -11
2 -36 -1 -55 -6z"/>
<path d="M391 4094 c-28 -63 -49 -119 -47 -123 8 -13 98 -1 146 20 124 55 143
147 40 199 -75 38 -81 34 -139 -96z"/>
<path d="M353 2645 c-39 -17 -40 -25 -10 -52 45 -43 173 -38 197 7 13 24 -8
37 -71 45 -24 4 -53 8 -64 10 -11 2 -35 -3 -52 -10z"/>
<path d="M5700 2185 c-7 -8 -18 -15 -26 -15 -7 0 -15 -8 -18 -17 -24 -87 -17
-159 20 -203 30 -35 43 -37 75 -11 23 19 23 20 6 39 -10 11 -32 26 -48 32 -16
7 -29 18 -29 26 0 24 39 26 74 5 44 -28 46 -27 46 13 0 46 -16 85 -48 119 -30
31 -35 32 -52 12z"/>
<path d="M4905 1510 c-23 -11 -61 -40 -85 -65 l-43 -44 12 -43 c28 -92 145
-298 170 -298 13 0 51 122 67 215 23 132 6 237 -40 249 -32 9 -38 8 -81 -14z"/>
<path d="M2542 1065 c-31 -39 -46 -92 -46 -170 -1 -64 1 -70 19 -70 14 0 28
15 45 50 20 41 25 65 25 129 0 88 -11 103 -43 61z"/>
<path d="M5447 945 c-33 -125 -48 -356 -28 -417 17 -51 48 -88 74 -88 26 0 81
48 102 89 23 46 40 159 37 251 -2 65 -9 98 -29 143 -25 56 -90 127 -116 127
-8 0 -23 -39 -40 -105z"/>
<path d="M3394 458 c-21 -40 -44 -124 -44 -159 0 -15 8 -37 18 -49 39 -48 101
23 110 125 4 44 1 55 -23 83 -15 18 -31 32 -36 32 -5 0 -16 -15 -25 -32z"/>
</g>
</svg>
